<svg width="21" height="21" viewBox="0 0 21 21" fill="none" xmlns="http://www.w3.org/2000/svg">
<path d="M4.86084 14.2459L5.24653 13.6027L5.06846 13.4959H4.86084V14.2459ZM4.86084 6.25115V7.00115H5.06846L5.24653 6.89438L4.86084 6.25115ZM11.5275 2.25375H12.2775C12.2775 1.98359 12.1322 1.7343 11.8971 1.60116C11.662 1.46801 11.3735 1.47159 11.1418 1.61052L11.5275 2.25375ZM11.5275 18.2433L11.1418 18.8866C11.3735 19.0255 11.662 19.0291 11.8971 18.8959C12.1322 18.7628 12.2775 18.5135 12.2775 18.2433H11.5275ZM4.86084 13.4959H2.19417V14.9959H4.86084V13.4959ZM2.19417 13.4959C1.87144 13.4959 1.61084 13.2352 1.61084 12.9135H0.11084C0.11084 14.0655 1.04491 14.9959 2.19417 14.9959V13.4959ZM1.61084 12.9135V7.58361H0.11084V12.9135H1.61084ZM1.61084 7.58361C1.61084 7.26192 1.87144 7.00115 2.19417 7.00115V5.50115C1.04491 5.50115 0.11084 6.4316 0.11084 7.58361H1.61084ZM2.19417 7.00115H4.86084V5.50115H2.19417V7.00115ZM5.24653 6.89438L11.9132 2.89698L11.1418 1.61052L4.47515 5.60792L5.24653 6.89438ZM10.7775 2.25375V18.2433H12.2775V2.25375H10.7775ZM11.9132 17.6001L5.24653 13.6027L4.47515 14.8892L11.1418 18.8866L11.9132 17.6001ZM13.4442 8.25375V12.2538H14.9442V8.25375H13.4442Z" fill="#8996B8" fill-opacity="0.6"/>
</svg>
