<svg width="21" height="21" viewBox="0 0 21 21" fill="none" xmlns="http://www.w3.org/2000/svg">
<path d="M15.5941 8.01209C15.5941 8.2331 15.6819 8.44506 15.8382 8.60134C15.9945 8.75762 16.2064 8.84542 16.4274 8.84542C16.6485 8.84542 16.8604 8.75762 17.0167 8.60134C17.173 8.44506 17.2608 8.2331 17.2608 8.01209V4.42042C17.2608 4.19941 17.173 3.98745 17.0167 3.83117C16.8604 3.67489 16.6485 3.58709 16.4274 3.58709H12.8441C12.6231 3.58709 12.4111 3.67489 12.2549 3.83117C12.0986 3.98745 12.0108 4.19941 12.0108 4.42042C12.0108 4.64143 12.0986 4.8534 12.2549 5.00968C12.4111 5.16596 12.6231 5.25375 12.8441 5.25375H14.4191L10.5941 9.07875L5.72744 4.22042C5.56802 4.0839 5.36296 4.01256 5.15323 4.02066C4.9435 4.02876 4.74455 4.11571 4.59614 4.26412C4.44772 4.41253 4.36078 4.61148 4.35268 4.82121C4.34458 5.03094 4.41592 5.236 4.55244 5.39542L9.41077 10.2538L4.16911 15.4954C4.091 15.5729 4.029 15.6651 3.9867 15.7666C3.94439 15.8682 3.92261 15.9771 3.92261 16.0871C3.92261 16.1971 3.94439 16.306 3.9867 16.4076C4.029 16.5091 4.091 16.6013 4.16911 16.6788C4.24658 16.7569 4.33874 16.8189 4.44029 16.8612C4.54184 16.9035 4.65076 16.9253 4.76077 16.9253C4.87078 16.9253 4.9797 16.9035 5.08125 16.8612C5.1828 16.8189 5.27497 16.7569 5.35244 16.6788L15.5941 6.43709V8.01209Z" fill="#8996B8" fill-opacity="0.6"/>
<path d="M16.4274 11.6538C16.2064 11.6538 15.9944 11.7416 15.8382 11.8978C15.6819 12.0541 15.5941 12.2661 15.5941 12.4871V14.0788L13.2774 11.7538C13.1205 11.5968 12.9077 11.5087 12.6857 11.5087C12.4638 11.5087 12.251 11.5968 12.0941 11.7538C11.9372 11.9107 11.849 12.1235 11.849 12.3454C11.849 12.5673 11.9372 12.7802 12.0941 12.9371L14.4024 15.2538H12.8357C12.6147 15.2538 12.4028 15.3416 12.2465 15.4978C12.0902 15.6541 12.0024 15.8661 12.0024 16.0871C12.0024 16.3081 12.0902 16.5201 12.2465 16.6763C12.4028 16.8326 12.6147 16.9204 12.8357 16.9204H16.4274C16.545 16.9211 16.6614 16.897 16.769 16.8495C16.8766 16.802 16.9729 16.7323 17.0516 16.6449C17.1303 16.5575 17.1896 16.4545 17.2257 16.3425C17.2617 16.2306 17.2737 16.1123 17.2607 15.9954V12.4871C17.2607 12.2661 17.1729 12.0541 17.0167 11.8978C16.8604 11.7416 16.6484 11.6538 16.4274 11.6538Z" fill="#8996B8" fill-opacity="0.6"/>
</svg>
